<svg enable-background="new 0 0 100 100" height="100" viewBox="0 0 100 100" width="100" xmlns="http://www.w3.org/2000/svg"><g fill="#fff"><path d="m32 42h4c.6 0 1-.4 1-1v-1.5c0-7.6 5.7-13.5 13-13.5s13 5.9 13 13.5v1.5c0 .6.4 1 1 1h4c.6 0 1-.4 1-1v-1.5c0-10.9-8.3-19.5-19-19.5s-19 8.6-19 19.5v1.5c0 .6.4 1 1 1z"/><path d="m70 48h-39c-3.3 0-6 2.7-6 6v20c0 3.3 2.7 6 6 6h39c3.3 0 6-2.7 6-6v-20c0-3.3-2.7-6-6-6zm-14.7 16.1c-.899 1.4-1.399 3-1 4.601l.7 3c.2 1.1-.6 2.3-1.8 2.3h-6.4c-1.2 0-2-1.2-1.8-2.3l.7-3.101c.4-1.6-.1-3.199-1-4.5-.9-1.3-1.3-2.899-1-4.5.5-2.399 2.5-4.3 5-4.8 4.1-.8 7.6 2.2 7.6 5.9 0 1.3-.4 2.4-1 3.4z"/></g></svg>